PathFileType	4	(X/Y/Z)	C:\Users\alexw\Dropbox\ABI\Level_8_Lab\OpenSim Tools\ProcessingTrialDataFromVicon\Output\AB08\_12Mar_ss_12ms_01\_12Mar_ss_12ms_01.trc
DataRate	CameraRate	NumFrames	NumMarkers	Units	OrigDataRate	OrigDataStartFrame	OrigNumFrames
200.000000	200.000000	6	42	mm	200.000000	3820	6093
Frame#	Time	LASI			RASI			LPSI			RPSI			LTH1			LTH2			LTH3			LTH4			LMFC			LLFC			LTB1			LTB2			LTB3			LTB4			LMMAL			LLMAL			LCAL			LToe			LMT1			LMT5			RTH1			RTH2			RTH3			RTH4			RMFC			RLFC			RTB1			RTB2			RTB3			RTB4			RMMAL			RLMAL			RCAL			RToe			RMT1			RMT5			C7			T10			LACR1			RACR1			CLAV			RBack			
		X1	Y1	Z1	X2	Y2	Z2	X3	Y3	Z3	X4	Y4	Z4	X5	Y5	Z5	X6	Y6	Z6	X7	Y7	Z7	X8	Y8	Z8	X9	Y9	Z9	X10	Y10	Z10	X11	Y11	Z11	X12	Y12	Z12	X13	Y13	Z13	X14	Y14	Z14	X15	Y15	Z15	X16	Y16	Z16	X17	Y17	Z17	X18	Y18	Z18	X19	Y19	Z19	X20	Y20	Z20	X21	Y21	Z21	X22	Y22	Z22	X23	Y23	Z23	X24	Y24	Z24	X25	Y25	Z25	X26	Y26	Z26	X27	Y27	Z27	X28	Y28	Z28	X29	Y29	Z29	X30	Y30	Z30	X31	Y31	Z31	X32	Y32	Z32	X33	Y33	Z33	X34	Y34	Z34	X35	Y35	Z35	X36	Y36	Z36	X37	Y37	Z37	X38	Y38	Z38	X39	Y39	Z39	X40	Y40	Z40	X41	Y41	Z41	X42	Y42	Z42	

3820	19.09	341.43851	935.80725	-990.16254	596.42725	930.81378	-965.73401	388.77628	953.09167	-761.58234	506.63077	952.49762	-746.95459	319.87613	708.86182	-1101.71780	310.55725	669.77063	-1098.90160	360.06189	629.46375	-1116.18520	342.32904	666.31378	-1111.69020	430.96732	520.22583	-1097.46110	303.67365	514.10516	-1073.30300	283.76382	412.33154	-1086.09780	288.86072	328.54669	-1095.35730	308.84683	337.96405	-1144.10660	300.07858	374.68307	-1129.08410	406.38519	122.90889	-1164.58580	318.26349	111.96629	-1147.27320	365.45911	49.49387	-1080.38220	385.03809	77.36231	-1382.59450	410.28500	66.56722	-1292.89640	297.33707	54.06415	-1277.18360	586.31091	641.29803	-911.60260	571.27826	583.37024	-881.46100	608.53259	574.99121	-833.36298	619.26788	624.42200	-862.68427	473.43405	473.33615	-773.72589	597.62842	497.29074	-740.31921	601.41187	382.98175	-696.43762	587.62805	346.57425	-688.24854	573.25562	302.12421	-666.61200	603.65143	325.18097	-628.04822	480.10364	155.47719	-530.20599	566.38885	159.68163	-490.76151	509.94748	131.88672	-404.82144	537.63104	32.12149	-679.93469	498.93854	39.46127	-594.33398	616.31696	48.83538	-563.67261	418.13138	1456.70150	-817.88501	434.42850	1203.62540	-752.12988	249.59328	1409.66780	-876.74683	575.15576	1436.95320	-878.11023	417.92484	1383.54990	-971.91663	552.64447	1358.74760	-765.27051
3821	19.095	340.24701	935.72925	-991.34027	595.31317	930.13440	-967.23566	387.75388	952.89343	-763.00452	505.76443	952.02856	-748.45386	318.44684	707.92615	-1102.47390	309.22180	669.75818	-1099.72610	358.67767	629.50195	-1117.44850	340.85144	666.35876	-1112.77750	431.01978	520.21173	-1096.14560	302.06174	514.74713	-1074.80980	282.14117	413.17010	-1087.53710	286.76019	329.13922	-1095.76380	307.87561	337.97543	-1144.26480	298.90823	374.83014	-1129.75930	405.43027	122.30019	-1160.87450	317.10098	111.73684	-1143.38290	364.90710	50.39151	-1075.21040	383.36353	72.36759	-1378.34110	409.15692	63.92763	-1288.45060	295.94055	50.75480	-1272.04100	585.80310	640.88232	-913.65179	570.87463	583.09381	-883.61237	608.33667	574.59564	-835.64136	618.85913	624.12628	-864.83887	473.50345	472.84338	-775.31403	597.95691	496.85117	-742.42694	601.97406	382.91406	-696.82239	588.11761	346.60529	-688.18201	573.70435	302.62711	-665.85138	604.07007	326.15109	-627.55035	480.60260	157.65706	-527.68683	566.83929	162.73148	-488.00293	509.99631	137.02290	-401.84863	537.63397	32.13273	-673.61212	498.88480	39.68182	-588.87000	616.38257	49.61051	-558.38733	417.15540	1456.54860	-818.10156	433.35440	1203.28140	-752.62982	248.62257	1409.68030	-877.18933	574.36786	1436.43520	-877.93817	417.13708	1383.73060	-972.18475	551.29211	1358.21810	-765.18427
3822	19.1	339.25037	935.75568	-992.59741	594.07977	929.65149	-968.85925	386.68735	952.85077	-764.36603	505.05246	951.65430	-749.74829	317.13617	708.64148	-1103.71150	308.07797	669.99347	-1100.91650	357.49399	629.70361	-1118.58450	339.60773	666.60461	-1113.79320	430.34769	520.16852	-1094.73410	300.45035	515.52814	-1077.05790	280.48447	413.71561	-1088.57780	284.97879	329.58359	-1095.77820	306.71930	337.85065	-1144.15650	297.69601	374.84525	-1130.16000	404.42297	122.03824	-1157.12370	316.19595	111.48850	-1139.37940	364.42560	51.28003	-1070.03100	382.18069	67.56853	-1373.89140	408.26624	61.54060	-1283.73630	294.75607	47.62083	-1266.98080	585.08362	640.86200	-915.95172	570.23688	582.84473	-885.98541	608.03522	574.17529	-838.17542	618.32245	623.79926	-867.31671	473.56613	472.38812	-777.18628	598.35071	496.39828	-744.94196	602.62805	382.86920	-697.64606	588.63947	346.62155	-688.57324	574.30713	303.23132	-665.59930	604.46161	327.17307	-627.50287	481.12286	160.02391	-525.35748	567.30280	165.91647	-485.64548	509.86917	142.45497	-399.14841	537.20825	31.97279	-667.27985	498.75580	39.77661	-583.31335	616.30969	50.52361	-553.20831	416.07437	1456.52320	-818.41766	432.27847	1202.97800	-753.29407	247.67783	1409.79530	-877.55786	573.64673	1436.01220	-877.80402	416.25894	1383.98790	-972.44385	550.03265	1357.81950	-765.04834
3823	19.105	338.17236	935.84271	-993.66473	592.79456	929.16791	-970.24121	385.63474	952.87115	-765.66107	504.39990	951.44849	-751.17432	316.26706	709.18872	-1104.80630	307.16690	670.37091	-1102.07580	356.63428	630.24835	-1119.95620	338.76065	667.00201	-1115.01700	429.43542	520.45013	-1093.49050	298.85468	516.43585	-1079.73550	278.57596	414.26416	-1089.58400	283.02213	330.01859	-1095.69620	305.57556	337.68497	-1143.87650	296.50552	374.81305	-1130.37000	403.34933	122.03049	-1153.18350	315.27136	111.25523	-1135.48960	363.72452	52.09759	-1064.88440	381.38120	62.66234	-1369.15990	408.09048	59.53982	-1279.03630	293.85892	44.84850	-1262.03990	584.35797	640.78113	-918.51605	569.84589	582.72681	-888.66058	607.84863	573.93121	-841.11456	617.88574	623.57153	-870.08276	473.68488	471.94922	-779.31427	598.79407	495.87759	-747.93805	603.35071	382.82330	-698.74133	589.30505	346.73636	-689.14465	575.56122	304.16003	-666.25610	604.91583	328.40134	-627.86938	481.70517	162.38445	-523.44061	567.74109	169.31041	-483.67636	509.61060	148.10101	-397.03391	537.13739	32.26224	-661.40686	498.56564	39.97232	-577.76410	616.28467	51.54193	-548.16095	415.09662	1456.60990	-818.71875	431.17587	1202.73060	-753.82391	246.70377	1410.02860	-877.99640	572.86407	1435.68970	-877.66254	415.44669	1384.30130	-972.63538	548.63080	1357.45680	-764.95813
3824	19.11	337.02609	935.93506	-994.64917	591.32056	929.23712	-971.80499	384.52887	953.06677	-766.96271	503.85861	951.23950	-752.49921	315.70822	709.79443	-1106.02060	306.66257	670.98248	-1103.56420	356.11606	630.94904	-1121.28760	338.29028	667.78040	-1116.32760	427.34116	520.59387	-1091.98940	297.55350	517.40894	-1082.48690	276.76535	414.51648	-1089.94460	281.28165	330.27930	-1095.24350	304.37558	337.35071	-1143.15280	295.08051	374.58862	-1130.10080	402.54416	122.32049	-1149.16880	314.60266	110.98782	-1131.66800	363.04214	52.75722	-1059.51700	381.49875	58.42166	-1364.23660	408.03210	57.39450	-1273.84970	292.90958	42.93079	-1256.93290	583.62244	640.84235	-921.23492	569.36523	582.65845	-891.74017	607.56763	573.44269	-844.40442	617.51111	623.41016	-873.24677	474.36194	471.62668	-782.00665	599.47083	495.34143	-751.40979	604.16278	382.87411	-700.19946	590.09216	346.83911	-690.11768	576.22375	304.74399	-666.67273	605.39929	329.59537	-628.44116	482.21280	164.83070	-521.97125	568.03137	172.80933	-481.97791	509.17310	154.18182	-395.36337	537.02686	32.30989	-655.20056	498.37964	40.22699	-572.39404	616.13892	52.70825	-543.18927	414.04623	1456.79270	-819.03644	430.07874	1202.63930	-754.43250	245.72704	1410.29970	-878.44257	572.07849	1435.48390	-877.56915	414.57932	1384.71070	-972.85461	547.38141	1357.25260	-764.82239
3825	19.115	335.86069	936.12201	-995.48792	589.81097	929.22986	-973.50055	383.47723	953.39838	-768.04114	503.35419	951.13837	-753.84515	315.23718	710.66705	-1107.44980	305.87842	671.74744	-1105.12770	355.53149	631.73401	-1122.46570	337.78165	668.61481	-1117.55260	425.82401	520.93744	-1091.25610	296.57755	518.37537	-1085.13350	274.95206	414.61639	-1090.13700	279.36371	330.44104	-1094.24780	303.18463	336.96848	-1142.05430	293.78702	374.36719	-1129.66850	402.12021	122.47441	-1144.90520	314.17346	110.75748	-1127.94790	362.48807	53.30296	-1053.97950	381.82620	54.72252	-1358.90320	408.39417	55.36829	-1268.39720	292.12253	41.97378	-1251.49990	583.04388	641.02631	-924.39880	569.05347	582.68463	-895.18610	607.49445	573.06519	-848.00952	617.11023	623.22736	-876.50281	475.66248	471.33548	-785.51886	600.21948	494.73483	-755.33521	605.07581	382.84491	-702.07739	591.12073	347.14044	-691.27368	577.10071	305.38086	-667.46387	606.03760	330.74591	-629.47406	482.71094	167.31339	-520.87195	568.30658	176.45836	-480.79507	508.78586	160.51349	-394.36322	536.79059	32.38088	-649.01953	498.14969	40.51532	-567.00342	615.95117	54.05799	-538.43732	413.06107	1457.04520	-819.34741	428.98730	1202.60880	-754.91931	244.81857	1410.68800	-878.86053	571.32837	1435.34400	-877.43091	413.75650	1385.16780	-973.05042	546.13440	1357.10560	-764.69232
